<svg width="24" height="10" viewBox="0 0 24 10" fill="none" xmlns="http://www.w3.org/2000/svg">
<path fill-rule="evenodd" clip-rule="evenodd" d="M1 5C0.447715 5 0 4.55228 0 4C0 3.44772 0.447715 3 1 3H1.41604C2.1876 1.2341 3.94968 0 6 0C7.8244 0 9.42059 0.977119 10.2938 2.43658C10.7845 2.15804 11.3765 2 12 2C12.6235 2 13.2155 2.15804 13.7062 2.43658C14.5794 0.977119 16.1756 0 18 0C20.0503 0 21.8124 1.2341 22.584 3H23C23.5523 3 24 3.44772 24 4C24 4.55228 23.5523 5 23 5C23 7.76142 20.7614 10 18 10C15.2386 10 13 7.76142 13 5C13 4.83125 13.0084 4.66445 13.0247 4.5H13C13 4.29657 12.6046 4 12 4C11.3954 4 11 4.29657 11 4.5H10.9753C10.9916 4.66445 11 4.83125 11 5C11 7.76142 8.76142 10 6 10C3.23858 10 1 7.76142 1 5ZM6 8C7.65685 8 9 6.65685 9 5C9 3.34315 7.65685 2 6 2C4.34315 2 3 3.34315 3 5C3 6.65685 4.34315 8 6 8ZM21 5C21 6.65685 19.6569 8 18 8C16.3431 8 15 6.65685 15 5C15 3.34315 16.3431 2 18 2C19.6569 2 21 3.34315 21 5Z" fill="#333333"/>
</svg>
