<svg width="192" height="183" viewBox="0 0 192 183" fill="none" xmlns="http://www.w3.org/2000/svg">
<path opacity="0.7" d="M186.601 31.6163C158.717 7.0784 128.699 -4.38872 119.554 6.00344C110.409 16.3956 125.6 44.7118 153.484 69.2497C169.111 83.0013 184.917 90.5831 188.789 86.1839C192.66 81.7848 183.13 67.0706 167.503 53.3189C139.618 28.7811 109.601 17.314 100.456 27.7061C91.3105 38.0984 106.501 66.4148 134.385 90.9526C150.012 104.704 165.819 112.286 169.69 107.887C173.562 103.487 164.032 88.7733 148.405 75.0216C120.52 50.4838 90.4569 39.0684 81.2558 49.5242C72.0548 59.9801 87.1999 88.3483 115.084 112.886C130.711 126.638 146.518 134.219 150.389 129.82C154.261 125.421 144.73 110.707 129.103 96.9555C101.219 72.4176 71.2011 60.9502 62.0561 71.3424C52.911 81.7347 68.1022 110.05 95.9865 134.588C111.614 148.34 127.42 155.922 131.291 151.523C135.162 147.124 125.632 132.409 110.005 118.658C82.121 94.1199 52.1028 82.6531 42.9578 93.0453C33.8127 103.438 49.0039 131.753 76.8882 156.291C92.5152 170.043 108.322 177.625 112.193 173.226C116.064 168.827 106.534 154.112 90.9069 140.361C63.0227 115.823 33.0045 104.356 23.86 114.748C14.715 125.14 29.9056 153.456 57.7898 177.994C73.4169 191.746 89.2236 199.327 93.0949 194.928C96.9656 190.529 87.4356 175.815 71.8086 162.063C43.9244 137.526 13.8613 126.11 4.66025 136.566C-4.54079 147.022 10.6044 175.39 38.4886 199.928" stroke="#F9F9F9" stroke-width="3" stroke-linecap="round"/>
</svg>
