<svg width="133" height="251" viewBox="0 0 133 251" fill="none" xmlns="http://www.w3.org/2000/svg">
<path opacity="0.8" d="M32.7921 1.50427C41.4979 13.1748 -5.65128 48.3466 3.05455 60.0171C11.7604 71.6876 58.9096 36.5158 67.6154 48.1863C76.3213 59.8569 29.172 95.0286 37.8575 106.672C46.5635 118.343 93.7128 83.1709 102.398 94.8137C111.104 106.484 63.9547 141.656 72.6399 153.299C81.3459 164.97 128.495 129.798 137.201 141.468C145.907 153.139 98.7573 188.311 107.463 199.981C116.169 211.651 163.318 176.479 172.024 188.15C180.73 199.821 133.581 234.993 142.287 246.664C150.992 258.333 198.141 223.162 206.847 234.832" stroke="#F9F9F9" stroke-width="3" stroke-miterlimit="10" stroke-linecap="round"/>
</svg>
