<svg width="166" height="176" viewBox="0 0 166 176" fill="none" xmlns="http://www.w3.org/2000/svg">
<path opacity="0.3" d="M88.0491 92.9678C88.2132 94.8195 84.778 95.8335 82.9973 92.9678C81.0727 90.4363 82.4878 84.5578 88.0491 82.8607C93.2871 80.8515 101.575 84.7083 103.204 92.9678C105.28 100.91 99.0125 111.624 88.0491 113.183C77.4263 115.33 64.2628 106.637 62.7902 92.9678C60.5582 79.6322 71.7009 64.051 88.0491 62.6452C104.08 60.3447 122.077 73.9015 123.412 92.9678C125.785 111.7 109.806 132.147 88.0491 133.398C66.6138 135.853 43.7669 117.429 42.5833 92.9678C40.0622 68.8254 60.8885 43.5404 88.0491 42.4302C114.867 39.8375 142.593 63.0974 143.619 92.9678C146.294 122.505 120.602 152.657 88.0491 153.613C55.8235 156.36 23.2615 128.235 22.3762 92.9678C19.5632 58.0345 50.0891 23.0205 88.0491 22.2151C125.67 19.3144 163.095 52.3067 163.826 92.9678C166.796 133.311 131.401 173.164 88.0491 173.828C45.037 176.87 2.74644 139.039 2.16912 92.9678C-0.942115 47.2305 39.2956 2.51017 88.0491 2" stroke="#F9F9F9" stroke-width="3" stroke-linecap="round"/>
</svg>
